<svg xmlns="http://www.w3.org/2000/svg" width="38" height="38" fill="none" viewBox="0 0 38 38"><path fill="#242424" fill-rule="evenodd" d="m17 16.175.433.447-5.326-15.328 6.102 14.357.244.574.021-.623L19 0l.526 15.602.021.623.244-.574 6.102-14.357-5.121 14.739-.205.588.433-.446L31.855 5.001 21.778 16.887l-.402.475 14.705-6.74-13.672 7.426-.546.297.62-.036L38 17.395l-16.036 2.044 15.389 4.968-15.086-3.761-.602-.15.482.392 12.08 9.824-12.714-8.98-.508-.36.309.541 7.731 13.543-8.625-12.987-.345-.518L22.506 38 19 22.153 15.494 38l2.337-15.433.094-.616-.345.518-8.625 12.987 7.73-13.543.31-.54-.508.358-12.714 8.98 12.08-9.823.482-.392-.602.15L.647 24.407l14.798-4.777.591-.191L0 17.395l16.137.95-.546-.296L1.92 10.62l14.706 6.74L6.146 5zm1.109.678-.77.48-.547.726-.248.876.083.906.404.815.67.614.846.328h.906l.846-.328.67-.614.404-.815.083-.906-.248-.876-.546-.727-.77-.479-.892-.167z" clip-rule="evenodd"/></svg>