<svg xmlns="http://www.w3.org/2000/svg" aria-hidden="true" style="position:absolute;width:0;height:0;overflow:hidden">
   <defs>
      <symbol id="icon-logo" viewBox="0 0 176 32">
         <path d="M6.64 17.707l-6.64-11.040h3.973l4.453 7.653h0.053l4.453-7.653h3.973l-6.64 11.040v7.627h-3.627v-7.627z"></path>
         <path d="M16.894 22.267v-12.533l3.067-3.067h9.6l3.067 3.067v12.533l-3.067 3.067h-9.6l-3.067-3.067zM27.64 22.24l1.36-1.36v-9.76l-1.36-1.36h-5.76l-1.36 1.36v9.76l1.36 1.36h5.76z"></path>
         <path d="M35.166 22.133v-15.467h3.627v14.213l1.36 1.36h5.227l1.36-1.36v-14.213h3.627v15.467l-3.2 3.2h-8.8l-3.2-3.2z"></path>
         <path d="M67.837 19.147v6.187h-3.627v-5.36l-1.6-1.787h-5.813v7.147h-3.627v-18.667h11.707l2.853 2.88v5.653l-1.813 1.84 1.92 2.107zM56.797 15.2h6.427l0.933-0.933v-3.627l-0.933-0.933h-6.427v5.493z"></path>
         <path d="M77.098 6.667h13.493v3.067h-9.867v4.72h9.093v3.013h-9.093v4.8h9.867v3.067h-13.493v-18.667z"></path>
         <path d="M92.603 6.667h3.253l8.32 12.667h0.053v-12.667h3.493v18.667h-3.253l-8.32-12.64h-0.053v12.64h-3.493v-18.667z"></path>
         <path d="M110.53 6.667h13.493v3.067h-9.867v4.72h9.093v3.013h-9.093v4.8h9.867v3.067h-13.493v-18.667z"></path>
         <path d="M140.703 19.147v6.187h-3.627v-5.36l-1.6-1.787h-5.814v7.147h-3.627v-18.667h11.707l2.853 2.88v5.653l-1.813 1.84 1.92 2.107zM129.662 15.2h6.427l0.933-0.933v-3.627l-0.933-0.933h-6.427v5.493z"></path>
         <path d="M143.097 22.267v-12.533l3.067-3.067h9.28l3.013 3.013v2.853h-3.627v-1.52l-1.253-1.253h-5.493l-1.36 1.36v9.76l1.36 1.36h5.547l1.307-1.307v-2.907h-4v-3.093h7.52v7.333l-3.067 3.067h-9.227l-3.067-3.067z"></path>
         <path d="M165.104 17.707l-6.64-11.040h3.973l4.453 7.653h0.053l4.453-7.653h3.973l-6.64 11.040v7.627h-3.627v-7.627z"></path>
      </symbol>
      <symbol id="burger-button" viewBox="0 0 32 32">
         <path stroke-linejoin="round" stroke-linecap="round" stroke-miterlimit="4" stroke-width="2" d="M28 13.333h-24"></path>
         <path stroke-linejoin="round" stroke-linecap="round" stroke-miterlimit="4" stroke-width="2" d="M28 8h-24"></path>
         <path stroke-linejoin="round" stroke-linecap="round" stroke-miterlimit="4" stroke-width="2" d="M28 18.667h-24"></path>
         <path stroke-linejoin="round" stroke-linecap="round" stroke-miterlimit="4" stroke-width="2" d="M28 24h-24"></path>
      </symbol>
      <symbol id="icon-close" viewBox="0 0 32 32">
         <path fill="none" stroke="#f4f4f4" stroke-linejoin="round" stroke-linecap="round" stroke-miterlimit="4" stroke-width="2" d="M24 8l-16 16"></path>
         <path fill="none" stroke="#f4f4f4" stroke-linejoin="round" stroke-linecap="round" stroke-miterlimit="4" stroke-width="2" d="M8 8l16 16"></path>
      </symbol>
      <symbol id="icon-youtube" viewBox="0 0 28 28">
         <g opacity="0.8">
            <path fill="currentColor" fill-rule="evenodd" clip-rule="evenodd" d="M21.2104 5.24986C20.0203 5.17986 17.5703 5.10986 13.8604 5.10986H13.3703C9.80034 5.10986 7.42038 5.17986 6.23038 5.31986C4.62038 5.45986 3.50034 5.87986 2.87034 6.43986C2.31034 6.92986 1.89036 7.83986 1.75036 9.02986C1.68036 9.79986 1.61035 11.4099 1.61035 13.8599V14.2099C1.61035 16.5199 1.68034 18.1299 1.82034 18.8999C2.03034 20.0199 2.38038 20.8599 3.08038 21.3499C3.78038 21.9099 4.97036 22.2599 6.65036 22.3999C7.84036 22.4699 10.2904 22.5399 14.0004 22.5399H14.4904C18.0604 22.5399 20.4404 22.4699 21.6304 22.3299C23.2404 22.1899 24.3604 21.7699 24.9904 21.2099C25.5504 20.7199 25.9703 19.8099 26.1103 18.6199C26.1803 17.8499 26.2504 16.2399 26.2504 13.7899V13.4399C26.2504 11.1299 26.1804 9.51986 26.0404 8.74986C25.8304 7.62986 25.4804 6.78986 24.7804 6.29986C24.0804 5.73986 22.8904 5.38986 21.2104 5.24986ZM18.4804 13.8599L10.7804 18.4799V9.23986L18.4804 13.8599Z" />
         </g>
      </symbol>
      <symbol id="icon-instagram" viewBox="0 0 28 28">
         <g opacity="0.8">
            <path fill="currentColor" d="M25.1277 9.41152C25.114 8.47146 24.9398 7.53885 24.6065 6.65964C24.0231 5.15827 22.8352 3.97109 21.3313 3.38991C20.4618 3.06332 19.5426 2.88822 18.6122 2.86835C17.4155 2.81495 17.0361 2.80005 13.9986 2.80005C10.961 2.80005 10.5716 2.80005 9.38372 2.86835C8.45454 2.88822 7.5353 3.06332 6.66582 3.38991C5.16196 3.97109 3.97279 5.15827 3.39065 6.65964C3.06351 7.52767 2.88688 8.44538 2.86946 9.37302C2.81598 10.5689 2.7998 10.9477 2.7998 13.9802C2.7998 17.0127 2.7998 17.4002 2.86946 18.5873C2.88812 19.5162 3.06351 20.4327 3.39065 21.3032C3.97404 22.8033 5.16195 23.9905 6.66706 24.5717C7.53281 24.9095 8.45205 25.1007 9.38497 25.1305C10.5828 25.1839 10.9622 25.2001 13.9998 25.2001C17.0374 25.2001 17.4267 25.2001 18.6146 25.1305C19.5438 25.1119 20.4631 24.9368 21.3338 24.6102C22.8377 24.0278 24.0256 22.8406 24.609 21.3405C24.9361 20.4712 25.1115 19.5547 25.1301 18.6246C25.1836 17.43 25.1998 17.0512 25.1998 14.0174C25.1973 10.9849 25.1973 10.5999 25.1277 9.41152ZM13.9911 19.7149C10.8142 19.7149 8.24059 17.1456 8.24059 13.974C8.24059 10.8024 10.8142 8.23302 13.9911 8.23302C17.1655 8.23302 19.7416 10.8024 19.7416 13.974C19.7416 17.1456 17.1655 19.7149 13.9911 19.7149ZM19.9705 9.35936C19.2279 9.35936 18.6296 8.7608 18.6296 8.02067C18.6296 7.28055 19.2279 6.68199 19.9705 6.68199C20.7106 6.68199 21.3102 7.28055 21.3102 8.02067C21.3102 8.7608 20.7106 9.35936 19.9705 9.35936Z" />
            <path fill="currentColor" d="M13.9928 17.4789C15.9277 17.4789 17.4963 15.9104 17.4963 13.9754C17.4963 12.0405 15.9277 10.4719 13.9928 10.4719C12.0578 10.4719 10.4893 12.0405 10.4893 13.9754C10.4893 15.9104 12.0578 17.4789 13.9928 17.4789Z" />
         </g>
      </symbol>
      <symbol id="icon-facebook" viewBox="0 0 28 28">
         <path fill="currentColor" d="M17.0804 4.06011C17.2904 4.06011 17.5004 4.06011 17.9204 4.06011V7.21011C17.7104 7.21011 17.2904 7.21011 16.8704 7.21011C16.4504 7.21011 16.0304 7.21011 15.8204 7.42011C15.6104 7.63011 15.6104 7.84011 15.6104 8.33011C15.6104 8.75011 15.6104 9.03011 15.6104 9.45011H17.9204V12.1101H15.6104V23.6601H12.0404V12.0401H10.1504V9.38011H12.0404V8.47011C12.0404 6.93011 12.2504 5.81011 12.6704 5.32011C13.3004 4.41011 14.5604 3.99011 16.4504 3.99011C16.6604 4.06011 16.8704 4.06011 17.0804 4.06011Z"/>
      </symbol>
      <symbol id="comma" viewBox="0 0 20 20">
         <path d="M5.12532 10.918C6.09146 10.5352 6.8662 10.6354 7.44954 11.2188C8.03288 11.8021 8.20604 12.7318 7.96906 14.0078C7.78678 14.9557 7.38574 15.6849 6.76594 16.1953C6.16438 16.6875 5.46256 16.9336 4.66048 16.9336C3.56672 16.9336 2.81022 16.5143 2.39094 15.6758C1.97167 14.819 1.88964 13.6706 2.14485 12.2305C2.29068 11.4466 2.52766 10.6537 2.85578 9.85155C3.18392 9.04947 3.62142 8.22917 4.16828 7.39063C4.71516 6.55209 5.4261 5.82291 6.3011 5.20313C7.1761 4.58333 8.14224 4.18229 9.19954 4L8.9261 6.89843C8.03288 7.08073 7.2399 7.54557 6.5472 8.29297C5.85448 9.02213 5.38052 9.89713 5.12532 10.918ZM13.3558 10.918C14.3219 10.5352 15.0967 10.6354 15.68 11.2188C16.2633 11.8021 16.4365 12.7318 16.1995 14.0078C16.0172 14.9557 15.6162 15.6849 14.9964 16.1953C14.3949 16.6875 13.693 16.9336 12.8909 16.9336C11.7972 16.9336 11.0407 16.5143 10.6214 15.6758C10.2021 14.819 10.1201 13.6706 10.3753 12.2305C10.5212 11.4466 10.7581 10.6537 11.0863 9.85155C11.4144 9.04947 11.8519 8.22917 12.3988 7.39063C12.9456 6.55209 13.6566 5.82291 14.5316 5.20313C15.4066 4.58333 16.3727 4.18229 17.43 4L17.1566 6.89843C16.2633 7.08073 15.4704 7.54557 14.7777 8.29297C14.085 9.02213 13.611 9.89713 13.3558 10.918Z" fill="#F4F4F4"/>
      </symbol>
      <symbol id="run" viewBox="0 0 32 32">
         <circle cx="16" cy="16" r="16" fill="#F4F4F4" fill-opacity="0.2"/>
         <path d="M24.7293 11.907C24.4611 11.594 23.9834 11.5528 23.6631 11.8138L21.5637 13.5369L20.5983 11.1998C20.564 11.1121 20.5119 11.0384 20.452 10.9734C20.2547 10.5446 19.9122 10.1763 19.44 9.96297C19.235 9.872 19.0233 9.82326 18.8116 9.79944C18.765 9.77561 18.7229 9.7442 18.6697 9.72796L14.9754 8.72184C14.7681 8.6666 14.5597 8.70234 14.3891 8.79981C14.1862 8.86696 14.0122 9.011 13.9291 9.22002L12.538 12.7149C12.3873 13.0951 12.5801 13.5239 12.9703 13.6734C13.3582 13.8207 13.7983 13.6311 13.9501 13.2499L15.125 10.2987L16.8076 10.7557C16.7666 10.8207 16.7222 10.8814 16.689 10.9507L14.532 15.5188C14.501 15.586 14.4844 15.6542 14.4622 15.7235L11.8408 20.0177L7.45378 21.4516C6.95721 21.8144 6.85192 22.4978 7.2188 22.983C7.5879 23.4692 8.28951 23.5721 8.78497 23.2137L13.274 21.7029C13.4114 21.6054 13.5112 21.4776 13.5866 21.34C13.6431 21.2816 13.7074 21.235 13.7506 21.1624L15.3135 18.6022L18.0878 20.9123L15.1195 24.1808C14.7105 24.6313 14.7515 25.3255 15.2148 25.7241C15.677 26.1259 16.3853 26.0836 16.7965 25.6309L20.5008 21.5534C20.6161 21.4278 20.6848 21.2826 20.7313 21.131C20.759 21.0487 20.759 20.9632 20.7657 20.8776C20.7657 20.8343 20.7823 20.7953 20.779 20.7552C20.769 20.4563 20.6449 20.1661 20.3944 19.9592L17.8417 17.8322C18.0257 17.661 18.182 17.4574 18.2951 17.2181L19.9488 13.7189L20.4786 15.0975C20.5008 15.2199 20.5429 15.3401 20.6316 15.4409C20.7114 15.534 20.8134 15.5957 20.922 15.6391C20.9331 15.6445 20.9464 15.6456 20.9597 15.6488C21.0284 15.6726 21.0982 15.6954 21.1703 15.6986C21.2556 15.7062 21.3421 15.6954 21.4296 15.6715C21.4318 15.6705 21.4329 15.6705 21.4329 15.6705C21.4562 15.665 21.4795 15.6694 21.5028 15.6596C21.6258 15.6141 21.72 15.5372 21.8009 15.4474L24.8136 12.9488C25.1339 12.6857 24.9987 12.22 24.7293 11.907Z" fill="#F4F4F4"/>
         <path d="M20.9191 10.1263C22.0853 10.1263 23.0306 9.20259 23.0306 8.06314C23.0306 6.9237 22.0853 6 20.9191 6C19.753 6 18.8076 6.9237 18.8076 8.06314C18.8076 9.20259 19.753 10.1263 20.9191 10.1263Z" fill="#F4F4F4"/>
      </symbol>
      <symbol id="workout" viewBox="0 0 32 32">
         <circle cx="16" cy="16" r="16" fill="#242424"/>
         <path d="M10.6 11.7143H9.4C9.0675 11.7143 8.8 12.0009 8.8 12.3571V15.1429H8.2C8.09 15.1429 8 15.2393 8 15.3571V16.6429C8 16.7607 8.09 16.8571 8.2 16.8571H8.8V19.6429C8.8 19.9991 9.0675 20.2857 9.4 20.2857H10.6C10.9325 20.2857 11.2 19.9991 11.2 19.6429V12.3571C11.2 12.0009 10.9325 11.7143 10.6 11.7143ZM23.8 15.1429H23.2V12.3571C23.2 12.0009 22.9325 11.7143 22.6 11.7143H21.4C21.0675 11.7143 20.8 12.0009 20.8 12.3571V19.6429C20.8 19.9991 21.0675 20.2857 21.4 20.2857H22.6C22.9325 20.2857 23.2 19.9991 23.2 19.6429V16.8571H23.8C23.91 16.8571 24 16.7607 24 16.6429V15.3571C24 15.2393 23.91 15.1429 23.8 15.1429ZM19.4 10H18.2C17.8675 10 17.6 10.2866 17.6 10.6429V15.1429H14.4V10.6429C14.4 10.2866 14.1325 10 13.8 10H12.6C12.2675 10 12 10.2866 12 10.6429V21.3571C12 21.7134 12.2675 22 12.6 22H13.8C14.1325 22 14.4 21.7134 14.4 21.3571V16.8571H17.6V21.3571C17.6 21.7134 17.8675 22 18.2 22H19.4C19.7325 22 20 21.7134 20 21.3571V10.6429C20 10.2866 19.7325 10 19.4 10Z" fill="#F4F4F4"/>
      </symbol>
      <symbol id="arrow" viewBox="0 0 16 16">
         <path d="M7.5 14L14 7.5M14 7.5L7.5 1M14 7.5H1" stroke="#242424" stroke-width="1.3" stroke-linecap="round" stroke-linejoin="round"/>
      </symbol>
      <symbol id="star" viewBox="0 0 14 14">
         <path d="M6.04894 0.927052C6.3483 0.0057416 7.6517 0.00574088 7.95106 0.927052L8.79611 3.52786C8.92999 3.93989 9.31394 4.21885 9.74717 4.21885H12.4818C13.4505 4.21885 13.8533 5.45846 13.0696 6.02786L10.8572 7.63525C10.5067 7.8899 10.3601 8.34127 10.494 8.75329L11.339 11.3541C11.6384 12.2754 10.5839 13.0415 9.80017 12.4721L7.58779 10.8647C7.2373 10.6101 6.7627 10.6101 6.41222 10.8647L4.19983 12.4721C3.41612 13.0415 2.36164 12.2754 2.66099 11.3541L3.50604 8.75329C3.63992 8.34127 3.49326 7.8899 3.14277 7.63525L0.930391 6.02787C0.146677 5.45846 0.549452 4.21885 1.51818 4.21885H4.25283C4.68606 4.21885 5.07001 3.93989 5.20389 3.52786L6.04894 0.927052Z" fill="#EEA10C"/>
      </symbol>
      <symbol id="sun" viewBox="0 0 38 38">
         <path fill="currentColor" d="M16.9997 16.1754L17.433 16.6215L12.107 1.29404L18.2093 15.6512L18.453 16.2246L18.474 15.6018L19 0L19.526 15.6015L19.547 16.2246L19.7906 15.6515L25.893 1.29404L20.7716 16.0328L20.567 16.6215L21.0003 16.1754L31.8551 5.00141L21.7779 16.8869L21.3755 17.3616L36.081 10.6214L22.4091 18.0484L21.8631 18.345L22.4825 18.3086L38 17.395L21.964 19.439L37.353 24.4074L22.2672 20.6459L21.6646 20.4957L22.1469 20.8878L34.2273 30.7115L21.5132 21.7311L21.0054 21.3724L21.314 21.913L29.0451 35.456L20.4198 22.4694L20.0753 21.9507L22.5062 38L19 22.1526L15.4938 38L17.8313 22.5671L17.9247 21.9507L17.5804 22.4691L8.95494 35.456L16.6858 21.9133L16.9946 21.3724L16.4871 21.7309L3.77271 30.7115L15.8529 20.888L16.3354 20.4957L15.7332 20.6458L0.647022 24.4074L15.445 19.6298L16.036 19.439L0 17.395L16.1369 18.345L15.5912 18.0486L1.91903 10.6214L16.6245 17.3616L6.14495 5.00141L16.9997 16.1754ZM18.1089 16.853L17.3381 17.3323L16.7918 18.0589L16.5437 18.9346L16.6273 19.8411L17.0314 20.6561L17.7014 21.2695L18.5467 21.5984H19.4533L20.2986 21.2695L20.9686 20.6561L21.3727 19.8411L21.4563 18.9346L21.2082 18.0589L20.6619 17.3323L19.8911 16.853L19 16.6857L18.1089 16.853Z" />
      </symbol>
      <symbol id="search" viewBox="0 0 18 18">
         <path d="M8.25 14.25C11.5637 14.25 14.25 11.5637 14.25 8.25C14.25 4.93629 11.5637 2.25 8.25 2.25C4.93629 2.25 2.25 4.93629 2.25 8.25C2.25 11.5637 4.93629 14.25 8.25 14.25Z" stroke="#242424" stroke-width="1.5" stroke-linecap="round" stroke-linejoin="round"/>
         <path d="M15.7498 15.75L12.4873 12.4875" stroke="#242424" stroke-width="1.5" stroke-linecap="round" stroke-linejoin="round"/>
      </symbol>
      <symbol id="heart" viewBox="0 0 20 18">
         <path d="M17.3671 2.84172C16.9415 2.41589 16.4361 2.0781 15.8799 1.84763C15.3237 1.61716 14.7275 1.49854 14.1254 1.49854C13.5234 1.49854 12.9272 1.61716 12.371 1.84763C11.8147 2.0781 11.3094 2.41589 10.8838 2.84172L10.0004 3.72506L9.11709 2.84172C8.25735 1.98198 7.09128 1.49898 5.87542 1.49898C4.65956 1.49898 3.4935 1.98198 2.63376 2.84172C1.77401 3.70147 1.29102 4.86753 1.29102 6.08339C1.29102 7.29925 1.77401 8.46531 2.63376 9.32506L3.51709 10.2084L10.0004 16.6917L16.4838 10.2084L17.3671 9.32506C17.7929 8.89943 18.1307 8.39407 18.3612 7.83785C18.5917 7.28164 18.7103 6.68546 18.7103 6.08339C18.7103 5.48132 18.5917 4.88514 18.3612 4.32893C18.1307 3.77271 17.7929 3.26735 17.3671 2.84172Z" stroke="#242424" stroke-width="1.5" stroke-linecap="round" stroke-linejoin="round" fill="none" />
      </symbol>
      <symbol id="trash" viewBox="0 0 16 16">
         <path d="M10.6667 4.00004V3.46671C10.6667 2.71997 10.6667 2.3466 10.5213 2.06139C10.3935 1.8105 10.1895 1.60653 9.93865 1.4787C9.65344 1.33337 9.28007 1.33337 8.53333 1.33337H7.46667C6.71993 1.33337 6.34656 1.33337 6.06135 1.4787C5.81046 1.60653 5.60649 1.8105 5.47866 2.06139C5.33333 2.3466 5.33333 2.71997 5.33333 3.46671V4.00004M6.66667 7.66671V11M9.33333 7.66671V11M2 4.00004H14M12.6667 4.00004V11.4667C12.6667 12.5868 12.6667 13.1469 12.4487 13.5747C12.2569 13.951 11.951 14.257 11.5746 14.4487C11.1468 14.6667 10.5868 14.6667 9.46667 14.6667H6.53333C5.41323 14.6667 4.85318 14.6667 4.42535 14.4487C4.04903 14.257 3.74307 13.951 3.55132 13.5747C3.33333 13.1469 3.33333 12.5868 3.33333 11.4667V4.00004" stroke="#242424" stroke-width="1.3" stroke-linecap="round" stroke-linejoin="round" fill="none" />
      </symbol>
   </defs>
</svg>
